<?xml version="1.0" standalone="no"?>
<!DOCTYPE svg PUBLIC "-//W3C//DTD SVG 1.1//EN" "http://www.w3.org/Graphics/SVG/1.1/DTD/svg11.dtd">
<svg version="1.1" xmlns="http://www.w3.org/2000/svg" viewBox="0 0 415.0625 105.22533797641285" width="415.0625" height="105.22533797641285"><!-- svg-source:excalidraw --><metadata></metadata><defs><style class="style-fonts">
      </style></defs><g stroke-linecap="round" transform="translate(10 10) rotate(0 197.53125 29.984375)"><path d="M3.99 3.47 C3.99 3.47, 3.99 3.47, 3.99 3.47 M3.99 3.47 C3.99 3.47, 3.99 3.47, 3.99 3.47 M0.19 20.04 C6.9 15.83, 10.57 6.34, 17.24 0.42 M0.19 20.04 C6.31 13.18, 10.08 7.71, 17.24 0.42 M0.98 31.32 C10.89 20.57, 17.63 11.02, 27.88 0.38 M0.98 31.32 C8.98 22.15, 17.09 13.32, 27.88 0.38 M1.11 43.37 C9.99 31.84, 19.27 23.02, 38.51 0.35 M1.11 43.37 C12.09 32.61, 21.14 19.79, 38.51 0.35 M2.56 53.9 C15.94 37.17, 29.06 24.16, 49.14 0.31 M2.56 53.9 C13.6 41.31, 23.49 29.94, 49.14 0.31 M8.59 59.15 C23.41 44.23, 37.17 27.28, 59.11 1.03 M8.59 59.15 C23.64 41.02, 40.41 22.34, 59.11 1.03 M18.57 59.87 C31.86 42.1, 46.73 28.12, 69.74 1 M18.57 59.87 C28.25 48.1, 39.58 36.03, 69.74 1 M29.2 59.83 C50.42 34.86, 68.29 14.44, 80.37 0.96 M29.2 59.83 C41.68 45.15, 52.41 32.27, 80.37 0.96 M39.83 59.8 C49.26 46.91, 62.89 35.73, 91 0.93 M39.83 59.8 C55.81 40.88, 71.22 22.61, 91 0.93 M50.46 59.76 C60.56 46.41, 73.52 33.14, 101.63 0.89 M50.46 59.76 C63.02 44.69, 77.36 28.41, 101.63 0.89 M61.09 59.73 C76.36 43.59, 86.71 27.1, 112.26 0.86 M61.09 59.73 C72.16 46.73, 84.05 31.85, 112.26 0.86 M71.72 59.69 C87.54 42.92, 101.1 28.12, 122.89 0.83 M71.72 59.69 C84.86 43.46, 99.09 27.37, 122.89 0.83 M81.69 60.41 C95.71 46.9, 106.64 35.47, 133.52 0.79 M81.69 60.41 C101 37.06, 118.75 15.54, 133.52 0.79 M92.32 60.38 C104.75 46.08, 120.29 29.53, 144.15 0.76 M92.32 60.38 C110.03 39.68, 128.96 18.86, 144.15 0.76 M102.95 60.34 C123.87 35.78, 141.02 14.67, 154.78 0.72 M102.95 60.34 C124.07 38.45, 142.59 14.11, 154.78 0.72 M113.58 60.31 C129.21 42.99, 142.88 28.24, 165.41 0.69 M113.58 60.31 C127.05 45.42, 139.52 29.49, 165.41 0.69 M124.21 60.28 C143.01 36.78, 165.81 14.74, 176.04 0.65 M124.21 60.28 C138.07 45.26, 151.93 28.96, 176.04 0.65 M134.84 60.24 C147.6 44.8, 158.84 30.99, 186.67 0.62 M134.84 60.24 C151.07 40.94, 167.22 22.17, 186.67 0.62 M145.47 60.21 C154.91 48.53, 166.56 33.61, 197.3 0.58 M145.47 60.21 C158.34 45.92, 170.19 33.35, 197.3 0.58 M156.1 60.17 C168.74 48.92, 181.32 33.49, 207.93 0.55 M156.1 60.17 C174.37 38.37, 193.13 16.25, 207.93 0.55 M166.73 60.14 C179.41 48.98, 190.23 34.1, 218.56 0.51 M166.73 60.14 C178.83 47.65, 190.06 32.76, 218.56 0.51 M177.36 60.1 C196.48 36.14, 216.83 15.32, 229.19 0.48 M177.36 60.1 C189.03 48.04, 199.73 33.78, 229.19 0.48 M187.99 60.07 C199.22 44.38, 211.3 30.66, 239.82 0.45 M187.99 60.07 C201.28 45.12, 214.2 31.68, 239.82 0.45 M198.62 60.03 C212.78 41.97, 228.12 25.06, 250.45 0.41 M198.62 60.03 C217.17 40.21, 233.45 19.54, 250.45 0.41 M209.25 60 C224.56 42.52, 240.55 24.99, 260.42 1.13 M209.25 60 C219.87 48.1, 228.63 37.36, 260.42 1.13 M219.88 59.96 C236.37 40.71, 251.94 23.06, 271.05 1.1 M219.88 59.96 C231.53 46.15, 242.97 33.62, 271.05 1.1 M230.51 59.93 C246.96 37.99, 264.02 20.43, 281.69 1.06 M230.51 59.93 C242.86 45.43, 256.34 31.29, 281.69 1.06 M241.14 59.9 C254.38 46.58, 264.23 31.1, 292.32 1.03 M241.14 59.9 C252.51 47.65, 263.33 35, 292.32 1.03 M251.77 59.86 C268.06 41.05, 283.98 21.96, 302.95 0.99 M251.77 59.86 C264.07 44.24, 278.24 29.07, 302.95 0.99 M262.4 59.83 C281.59 35.34, 302.76 14.12, 313.58 0.96 M262.4 59.83 C273.87 45.09, 287.31 32.18, 313.58 0.96 M272.38 60.55 C292.59 39.26, 312.2 15.18, 324.21 0.92 M272.38 60.55 C291.38 38.58, 310.12 18.55, 324.21 0.92 M283.01 60.51 C300.52 39.02, 321.74 18.51, 334.84 0.89 M283.01 60.51 C300.88 40.87, 316.38 21.79, 334.84 0.89 M293.64 60.48 C313.33 36.26, 333.84 15.68, 345.47 0.86 M293.64 60.48 C314.79 37.72, 336.01 12.81, 345.47 0.86 M304.27 60.44 C314.99 47.19, 330.61 30.16, 356.1 0.82 M304.27 60.44 C320.43 42.86, 334.36 26.99, 356.1 0.82 M314.9 60.41 C324.05 47.07, 335.38 37.24, 366.73 0.79 M314.9 60.41 C327.01 44.98, 341.37 29.95, 366.73 0.79 M325.53 60.37 C334.63 46.68, 346.7 37.66, 377.36 0.75 M325.53 60.37 C345.24 36.52, 364.89 14.69, 377.36 0.75 M336.16 60.34 C354.52 39.97, 372.38 21.37, 386.67 2.23 M336.16 60.34 C352.48 40.9, 370.91 21.7, 386.67 2.23 M346.79 60.31 C361.47 43.08, 377.7 23.23, 393.37 6.72 M346.79 60.31 C361.86 42.61, 376.14 25.5, 393.37 6.72 M357.42 60.27 C372.3 42.76, 386.38 28.53, 394.81 17.25 M357.42 60.27 C367.8 46.18, 379.64 34.19, 394.81 17.25 M368.05 60.24 C377.53 49.1, 389.03 37.57, 394.95 29.29 M368.05 60.24 C373.09 54.23, 379.27 47.68, 394.95 29.29 M378.68 60.2 C382.56 52.57, 388.86 47.76, 395.08 41.33 M378.68 60.2 C383.29 55.14, 389.67 47.13, 395.08 41.33" stroke="#154162" stroke-width="1" fill="none"></path><path d="M14.99 0 C158.04 -3.08, 298.57 -1.47, 380.07 0 M14.99 0 C134.73 0.92, 254.6 0.32, 380.07 0 M380.07 0 C389.58 1.82, 394.48 4.33, 395.06 14.99 M380.07 0 C392.23 -0.13, 395.29 5.94, 395.06 14.99 M395.06 14.99 C395.21 28.33, 394.35 38.17, 395.06 44.98 M395.06 14.99 C394.16 22.6, 394.98 29.34, 395.06 44.98 M395.06 44.98 C394.25 53.56, 392.05 59.88, 380.07 59.97 M395.06 44.98 C395.06 55.41, 390.23 61.88, 380.07 59.97 M380.07 59.97 C288.63 58.91, 195.66 60.62, 14.99 59.97 M380.07 59.97 C265.21 58.94, 148.78 59.04, 14.99 59.97 M14.99 59.97 C5.35 59.74, -0.89 56.35, 0 44.98 M14.99 59.97 C6.95 58.73, 2.13 55.23, 0 44.98 M0 44.98 C0.52 35.74, 1.73 23.84, 0 14.99 M0 44.98 C-0.64 34.6, 0.9 22.15, 0 14.99 M0 14.99 C0.65 4.77, 4.35 -0.54, 14.99 0 M0 14.99 C1.73 3.27, 3.71 -1.51, 14.99 0" stroke="#d3d3d3" stroke-width="2" fill="none"></path></g><g stroke-linecap="round"><g transform="translate(190.61620372937978 71.39161371900701) rotate(0 8.147068842910244 10.615175503548215)"><path d="M0.18 -0.33 C2.75 3.34, 12.44 18.98, 15.21 22.78 M-1.19 -1.55 C1.79 1.69, 14.56 16.64, 17.49 20.88" stroke="#d3d3d3" stroke-width="2" fill="none"></path></g></g><mask></mask><g stroke-linecap="round"><g transform="translate(208.48085363646965 94.22658828304151) rotate(0 7.769346958659639 -11.587021042965347)"><path d="M-0.1 -1.06 C2.34 -4.77, 12.13 -18.63, 14.99 -22.16 M-1.62 1 C1.16 -3.1, 14.09 -20.53, 17.16 -24.17" stroke="#d3d3d3" stroke-width="2" fill="none"></path></g></g><mask></mask></svg>