<?xml version="1.0" standalone="no"?>
<!DOCTYPE svg PUBLIC "-//W3C//DTD SVG 1.1//EN" "http://www.w3.org/Graphics/SVG/1.1/DTD/svg11.dtd">
<svg version="1.1" xmlns="http://www.w3.org/2000/svg" viewBox="0 0 21.11183773793516 87.15729428529738" width="21.11183773793516" height="87.15729428529738"><!-- svg-source:excalidraw --><metadata></metadata><defs><style class="style-fonts">
      </style></defs><g stroke-linecap="round"><g transform="translate(10.406758134144525 76.04848110042514) rotate(0 0.14916073482299907 -32.469833957776444)"><path d="M0.69 1.11 C0.74 -10.1, 0.66 -54.91, 0.58 -66.05 M-0.4 0.65 C-0.44 -9.95, 0.17 -54.17, 0.22 -65.08" stroke="#d3d3d3" stroke-width="2" fill="none"></path></g><g transform="translate(10.406758134144525 76.04848110042514) rotate(0 0.14916073482299907 -32.469833957776444)"><path d="M-0.34 -66.87 L8.4 -50.92 L-6.77 -50.91 L1.11 -65.68" stroke="none" stroke-width="0" fill="#d3d3d3" fill-rule="evenodd"></path><path d="M0.22 -65.08 C3.76 -59.28, 3.04 -55.26, 6.43 -51.43 M0.22 -65.08 C1.25 -61.58, 2.42 -58.54, 6.43 -51.43 M6.43 -51.43 C0.36 -52.19, -2.66 -50.6, -6.25 -51.55 M6.43 -51.43 C3.49 -51.5, 0.29 -51.78, -6.25 -51.55 M-6.25 -51.55 C-5.64 -55, -2.79 -58.55, 0.22 -65.08 M-6.25 -51.55 C-4.85 -54.74, -3.09 -59.88, 0.22 -65.08 M0.22 -65.08 C0.22 -65.08, 0.22 -65.08, 0.22 -65.08 M0.22 -65.08 C0.22 -65.08, 0.22 -65.08, 0.22 -65.08" stroke="#d3d3d3" stroke-width="2" fill="none"></path></g></g><mask></mask></svg>